<svg xmlns="http://www.w3.org/2000/svg" viewBox="0 0 200 200"><defs><style>.cls-1{fill:#fb990d;}</style></defs><path d="M100.1 189.8a19.37 19.37 0 0 1-12.6-5.07l-4-3.4c-11.72-10.07-23.83-20.5-35.7-30.8-11-9.62-22.53-20.24-31.88-32.8C7.6 106.46 2.68 95.54 1 84.32c-3.2-20.94 1.6-39 14.24-53.87C28.38 15 46.26 8.26 66.9 10.9c12.32 1.6 23.44 7.6 33.1 17.86 16.43-17.17 36.74-22.58 58.76-15.63C178.9 19.5 192.08 34 197.9 56.23a70.86 70.86 0 0 1 1.53 8.18c.16 1.1.32 2.2.5 3.3l.1.57V78l-.17.76-.15.6c-1 11.43-5 22.26-12 33.1a137.25 137.25 0 0 1-23.82 27.36c-14.77 13.18-30 26.35-44.66 39.1l-7.22 6.15a18.1 18.1 0 0 1-11.9 4.74zm-42-165.5c-12.93 0-23.54 5-32.27 15.22-10 11.75-13.65 25.72-11 42.7 1.38 9 5.32 17.67 12.4 27.17 8 10.86 17.7 20.1 29.77 30.6 11.82 10.3 23.92 20.7 35.62 30.75l4 3.4c3.13 2.7 4.7 1.77 6.3.38l7.13-6.18c14.66-12.7 29.8-25.83 44.5-38.95A121.7 121.7 0 0 0 176 104.85c5.84-9 9.06-17.82 9.85-27a9.57 9.57 0 0 1 .25-1.5v-6.92c-.17-1-.3-2-.46-3a62.2 62.2 0 0 0-1.2-6.64c-4.6-17.54-14.37-28.44-29.86-33.33C137.38 21 122.8 25 109.92 38.55c-.74.78-1.5 1.67-2.18 2.5-.48.58-.93 1.17-1.4 1.8l-6.06 7.8-5.56-6.57c-.56-.65-1.1-1.3-1.63-1.95-1-1.27-2-2.47-3-3.55-7.53-8.12-15.68-12.64-24.93-13.83a57.33 57.33 0 0 0-7.08-.46z" class="cls-1"/></svg>